HIERARCHY
ROOT Hips
{
	OFFSET 51.797501 -14.872115 94.208900
	CHANNELS 6 Xposition Yposition Zposition Xrotation Yrotation Zrotation
	JOINT spine
	{
		OFFSET 0.000000 -0.448574 7.800583
		CHANNELS 3 Xrotation Yrotation Zrotation
		JOINT spine1
		{
			OFFSET 0.000000 -0.000002 10.136398
			CHANNELS 3 Xrotation Yrotation Zrotation
			JOINT spine2
			{
				OFFSET 0.000000 -0.000002 9.712509
				CHANNELS 3 Xrotation Yrotation Zrotation
				JOINT Neck
				{
					OFFSET 0.000000 -1.188874 24.936104
					CHANNELS 3 Xrotation Yrotation Zrotation
					JOINT Head
					{
						OFFSET 0.000000 0.000000 7.533844
						CHANNELS 3 Xrotation Yrotation Zrotation
						End Site
						{
							OFFSET 0.000000 6.014017 18.236099
						}
					}
				}
				JOINT RightShoulder
				{
					OFFSET -4.089649 0.569455 10.488808
					CHANNELS 3 Xrotation Yrotation Zrotation
					JOINT RightArm
					{
						OFFSET 0.000000 -0.000002 13.757004
						CHANNELS 3 Xrotation Yrotation Zrotation
						JOINT RightArmRoll
						{
							OFFSET 0.000000 -0.000001 6.944778
							CHANNELS 3 Xrotation Yrotation Zrotation
							JOINT RightForeArm
							{
								OFFSET 0.000000 -0.000004 20.227692
								CHANNELS 3 Xrotation Yrotation Zrotation
								JOINT RightForeArmRoll
								{
									OFFSET 0.000000 -0.000001 7.793121
									CHANNELS 3 Xrotation Yrotation Zrotation
									JOINT RightHand
									{
										OFFSET 0.000000 -0.000003 15.639099
										CHANNELS 3 Xrotation Yrotation Zrotation
										End Site
										{
											OFFSET 0.000000 0.000000 0.100006
										}
									}
								}
							}
						}
					}
				}
				JOINT LeftShoulder
				{
					OFFSET 4.089649 0.569455 10.488808
					CHANNELS 3 Xrotation Yrotation Zrotation
					JOINT LeftArm
					{
						OFFSET 0.000000 -0.000002 13.757004
						CHANNELS 3 Xrotation Yrotation Zrotation
						JOINT LeftArmRoll
						{
							OFFSET 0.000000 -0.000001 6.944778
							CHANNELS 3 Xrotation Yrotation Zrotation
							JOINT LeftForeArm
							{
								OFFSET 0.000000 -0.000004 20.227692
								CHANNELS 3 Xrotation Yrotation Zrotation
								JOINT LeftForeArmRoll
								{
									OFFSET 0.000000 -0.000001 7.793121
									CHANNELS 3 Xrotation Yrotation Zrotation
									JOINT LeftHand
									{
										OFFSET 0.000000 -0.000003 15.639099
										CHANNELS 3 Xrotation Yrotation Zrotation
										End Site
										{
											OFFSET 0.000000 0.000000 0.100006
										}
									}
								}
							}
						}
					}
				}
			}
		}
	}
	JOINT RightUpLeg
	{
		OFFSET -6.914150 1.063581 -1.267868
		CHANNELS 3 Xrotation Yrotation Zrotation
		JOINT RightUpLegRoll
		{
			OFFSET 0.000000 -0.000003 18.337799
			CHANNELS 3 Xrotation Yrotation Zrotation
			JOINT RightLeg
			{
				OFFSET 0.000000 0.000004 -22.708504
				CHANNELS 3 Xrotation Yrotation Zrotation
				JOINT RightLegRoll
				{
					OFFSET 0.000000 -0.000004 22.782799
					CHANNELS 3 Xrotation Yrotation Zrotation
					JOINT RightFoot
					{
						OFFSET 0.000000 -0.000003 18.962898
						CHANNELS 3 Xrotation Yrotation Zrotation
						JOINT RightToeBase
						{
							OFFSET 0.000000 -0.000003 15.852005
							CHANNELS 3 Xrotation Yrotation Zrotation
							End Site
							{
								OFFSET 0.006718 0.884891 7.677017
							}
						}
					}
				}
			}
		}
	}
	JOINT LeftUpLeg
	{
		OFFSET 6.914150 1.063581 -1.267868
		CHANNELS 3 Xrotation Yrotation Zrotation
		JOINT LeftUpLegRoll
		{
			OFFSET 0.000000 -0.000003 18.337898
			CHANNELS 3 Xrotation Yrotation Zrotation
			JOINT LeftLeg
			{
				OFFSET 0.000000 -0.000004 22.708405
				CHANNELS 3 Xrotation Yrotation Zrotation
				JOINT LeftLegRoll
				{
					OFFSET 0.000000 -0.000004 22.993408
					CHANNELS 3 Xrotation Yrotation Zrotation
					JOINT LeftFoot
					{
						OFFSET 0.000000 -0.000003 18.752197
						CHANNELS 3 Xrotation Yrotation Zrotation
						JOINT LeftToeBase
						{
							OFFSET 0.000000 -0.000003 15.852005
							CHANNELS 3 Xrotation Yrotation Zrotation
							End Site
							{
								OFFSET -0.030113 0.884892 7.677002
							}
						}
					}
				}
			}
		}
	}
}
MOTION
Frames: 9
Frame Time: 0.041667
51.861698 -13.157915 94.223907 -6.017815 0.918155 -3.551664 -0.703419 0.031051 0.264270 2.601091 0.061200 0.523064 4.246133 0.067526 0.522434 17.418596 0.426422 -0.665795 -14.892473 -3.126139 -0.761691 -20.773035 -77.533801 -24.326938 -81.634366 -95.708975 -71.236961 -0.000001 0.000013 0.000001 20.015014 -13.623203 1.554304 -0.000002 0.000008 -2.999989 -5.000272 -7.998731 0.000210 6.302765 66.301411 -6.173595 13.430513 104.005531 -28.008114 0.000000 -0.000007 0.000002 16.218957 6.084172 0.358456 -0.000001 0.000004 3.006531 -5.000226 7.999241 -0.000103 1.945729 -179.294405 -0.049414 -179.999991 0.000005 -1.104997 170.572609 -1.926648 -0.638844 -0.000006 -0.000005 0.155359 69.909868 6.784986 2.351344 25.464540 -7.355618 0.002547 1.858770 -179.279365 6.877268 -0.000005 -0.000004 -1.470049 -12.447470 4.881541 0.737745 -0.000009 0.000000 -0.280505 74.079535 -7.767935 0.852249 25.456959 7.355625 -0.000005 
51.868698 -13.157016 94.219002 -6.018884 0.921772 -3.547446 -0.700915 0.030149 0.263560 2.605971 0.059189 0.522046 4.251013 0.065498 0.521427 17.389744 0.402623 -0.663083 -14.876984 -3.100554 -0.757061 -20.801462 -77.548964 -24.357141 -81.849463 -95.664176 -71.411725 -0.000000 0.000014 -0.000004 20.008619 -13.611619 1.549519 -0.000001 0.000008 -2.999990 -5.000269 -7.998731 0.000211 6.274474 66.285490 -6.144264 13.746773 104.022463 -28.337422 0.000000 -0.000006 0.000003 16.253291 6.094641 0.356920 -0.000002 0.000004 3.006531 -5.000227 7.999242 -0.000103 1.954794 -179.302410 -0.057700 -179.999991 0.000005 -1.104996 170.582813 -1.919792 -0.638351 -0.000006 -0.000005 0.155373 69.903626 6.784027 2.355955 25.464538 -7.355619 0.002547 1.857934 -179.283382 6.874085 -0.000005 -0.000004 -1.470040 -12.454709 4.882158 0.737719 -0.000009 0.000001 -0.280509 74.084904 -7.768435 0.856151 25.456959 7.355625 -0.000005 
51.873100 -13.162218 94.220299 -6.019885 0.925457 -3.543260 -0.698463 0.029245 0.262846 2.610741 0.057162 0.521040 4.255782 0.063452 0.520427 17.361491 0.377920 -0.660326 -14.862177 -3.073949 -0.752331 -20.830504 -77.564298 -24.387990 -82.073035 -95.620674 -71.592520 -0.000000 0.000013 -0.000001 19.997643 -13.599562 1.544101 -0.000002 0.000008 -2.999990 -5.000270 -7.998731 0.000210 6.246589 66.269460 -6.115412 14.060970 104.039730 -28.664993 0.000000 -0.000007 0.000004 16.285512 6.105060 0.355418 -0.000001 0.000004 3.006530 -5.000225 7.999242 -0.000104 1.964002 -179.311413 -0.066235 -179.999991 0.000005 -1.104997 170.593277 -1.912949 -0.638854 -0.000006 -0.000005 0.155395 69.897397 6.783069 2.360665 25.464537 -7.355618 0.002548 1.857094 -179.287370 6.870816 -0.000004 -0.000004 -1.470029 -12.462048 4.882791 0.737683 -0.000010 0.000001 -0.280507 74.090395 -7.768943 0.860259 25.456965 7.355626 -0.000005 
51.874901 -13.160116 94.220291 -6.020863 0.929192 -3.539090 -0.696055 0.028342 0.262130 2.615421 0.055123 0.520039 4.260462 0.061396 0.519435 17.333844 0.352583 -0.657544 -14.847665 -3.046649 -0.747527 -20.859753 -77.579618 -24.419067 -82.301205 -95.578150 -71.776334 -0.000000 0.000014 -0.000001 19.983441 -13.587209 1.538253 -0.000000 0.000008 -2.999990 -5.000273 -7.998731 0.000211 6.218909 66.253197 -6.086816 14.374369 104.056382 -28.992056 0.000000 -0.000006 0.000003 16.316224 6.115468 0.353940 -0.000000 0.000004 3.006530 -5.000224 7.999241 -0.000103 1.973311 -179.320415 -0.074921 -179.999991 0.000005 -1.104996 170.603864 -1.905110 -0.638191 -0.000006 -0.000005 0.155420 69.891051 6.782138 2.365387 25.464537 -7.355619 0.002547 1.856256 -179.290362 6.867496 -0.000005 -0.000004 -1.470011 -12.469492 4.883444 0.737642 -0.000010 0.000000 -0.280503 74.096016 -7.769463 0.864475 25.456967 7.355625 -0.000005 
51.877499 -13.151017 94.220688 -6.021812 0.932955 -3.534938 -0.693676 0.027438 0.261415 2.620061 0.053078 0.519043 4.265101 0.059332 0.518446 17.306291 0.326883 -0.654761 -14.833363 -3.018937 -0.742687 -20.889435 -77.595115 -24.450595 -82.534715 -95.536206 -71.964628 -0.000000 0.000013 -0.000002 19.967460 -13.574523 1.532104 -0.000001 0.000008 -2.999991 -5.000272 -7.998732 0.000211 6.191412 66.236927 -6.058437 14.685482 104.074359 -29.316893 0.000000 -0.000006 0.000004 16.346135 6.125845 0.352470 -0.000002 0.000004 3.006530 -5.000226 7.999241 -0.000103 1.982666 -179.329403 -0.083695 -179.999991 0.000005 -1.104997 170.614519 -1.898268 -0.638705 -0.000006 -0.000005 0.155449 69.884815 6.781172 2.370097 25.464537 -7.355620 0.002549 1.855390 -179.294365 6.864119 -0.000005 -0.000004 -1.469979 -12.477034 4.884103 0.737601 -0.000010 0.000001 -0.280496 74.101706 -7.769938 0.868603 25.456964 7.355625 -0.000005 
51.880100 -13.153215 94.219193 -6.022758 0.936725 -3.530785 -0.691300 0.026534 0.260698 2.624681 0.051030 0.518048 4.269722 0.057267 0.517460 17.278946 0.301090 -0.651996 -14.819055 -2.991125 -0.737847 -20.919066 -77.610511 -24.482084 -82.771907 -95.494494 -72.156277 0.000000 0.000013 -0.000001 19.951070 -13.561865 1.525949 0.000001 0.000008 -2.999990 -5.000268 -7.998731 0.000211 6.163980 66.220555 -6.030130 14.996640 104.091755 -29.641928 0.000000 -0.000007 0.000004 16.375843 6.136223 0.351001 -0.000001 0.000004 3.006530 -5.000226 7.999243 -0.000103 1.992031 -179.338392 -0.092493 -179.999991 0.000005 -1.104996 170.625188 -1.890428 -0.639042 -0.000006 -0.000005 0.155479 69.878470 6.780205 2.374911 25.464542 -7.355618 0.002547 1.854537 -179.298367 6.860727 -0.000005 -0.000004 -1.469960 -12.484472 4.884764 0.737547 -0.000009 0.000001 -0.280489 74.107320 -7.770455 0.872720 25.456959 7.355625 -0.000005 
51.883202 -13.159418 94.219490 -6.023724 0.940480 -3.526623 -0.688909 0.025630 0.259982 2.629331 0.048986 0.517052 4.274373 0.055205 0.516471 17.251407 0.275474 -0.649268 -14.804753 -2.963511 -0.733050 -20.948692 -77.625913 -24.513534 -83.011544 -95.452645 -72.350773 -0.000000 0.000014 -0.000001 19.935514 -13.549239 1.519879 0.000000 0.000008 -2.999990 -5.000271 -7.998731 0.000210 6.136535 66.204279 -6.001795 15.306129 104.110531 -29.965153 0.000000 -0.000006 0.000003 16.405956 6.146611 0.349507 -0.000001 0.000004 3.006530 -5.000227 7.999242 -0.000103 2.001370 -179.346397 -0.101217 -179.999991 0.000005 -1.104996 170.635843 -1.882587 -0.638386 -0.000006 -0.000006 0.155508 69.872145 6.779269 2.379731 25.464538 -7.355618 0.002547 1.853689 -179.302356 6.857358 -0.000004 -0.000004 -1.469940 -12.492014 4.885423 0.737510 -0.000009 0.000001 -0.280482 74.113023 -7.770923 0.876949 25.456964 7.355625 -0.000005 
51.886398 -13.157015 94.217796 -6.024705 0.944201 -3.522454 -0.686492 0.024726 0.259267 2.634041 0.046950 0.516051 4.279081 0.053150 0.515478 17.223572 0.250308 -0.646599 -14.790165 -2.936401 -0.728326 -20.978192 -77.641226 -24.544855 -83.250854 -95.410305 -72.546130 0.000000 0.000014 -0.000002 19.922251 -13.536882 1.514158 -0.000001 0.000008 -2.999990 -5.000271 -7.998730 0.000211 6.108951 66.188003 -5.973290 15.615423 104.129731 -30.288160 0.000000 -0.000007 0.000003 16.437079 6.157022 0.347979 -0.000000 0.000004 3.006530 -5.000226 7.999242 -0.000104 2.010647 -179.355413 -0.109873 -179.999991 0.000005 -1.104997 170.646402 -1.875743 -0.638911 -0.000007 -0.000005 0.155531 69.865800 6.778331 2.384453 25.464540 -7.355618 0.002548 1.852846 -179.306372 6.854038 -0.000004 -0.000004 -1.469919 -12.499351 4.886067 0.737463 -0.000009 0.000001 -0.280478 74.118617 -7.771411 0.881067 25.456969 7.355625 -0.000005 
51.871498 -13.160417 94.217506 -6.025729 0.947865 -3.518260 -0.684023 0.023822 0.258556 2.638840 0.044926 0.515042 4.283881 0.051109 0.514479 17.195240 0.225859 -0.644011 -14.775086 -2.910086 -0.723708 -21.007625 -77.656539 -24.576105 -83.490689 -95.367097 -72.743857 -0.000000 0.000013 -0.000001 19.912643 -13.524989 1.508970 -0.000002 0.000008 -2.999989 -5.000269 -7.998730 0.000210 6.081155 66.172041 -5.944531 15.924810 104.149395 -30.611040 -0.000000 -0.000007 0.000002 16.469919 6.167458 0.346398 -0.000001 0.000004 3.006531 -5.000224 7.999241 -0.000103 2.019816 -179.364401 -0.118362 -179.999991 0.000005 -1.104997 170.656757 -1.868897 -0.638434 -0.000006 -0.000005 0.155550 69.859564 6.777363 2.389059 25.464540 -7.355618 0.002548 1.852006 -179.309364 6.850820 -0.000005 -0.000004 -1.469900 -12.506693 4.886700 0.737437 -0.000009 0.000001 -0.280478 74.124116 -7.771908 0.885177 25.456962 7.355626 -0.000005 
